{"asset":{"version":"2.0","generator":"Blockbench 4.12.3 glTF exporter"},"scenes":[{"nodes":[1],"name":"blockbench_export"}],"scene":0,"nodes":[{"rotation":[-0.19509032201612825,0,0,0.9807852804032304],"translation":[0,-0.125,0.125],"name":"cylinder","mesh":0},{"children":[0]}],"bufferViews":[{"buffer":0,"byteOffset":0,"byteLength":600,"target":34962,"byteStride":12},{"buffer":0,"byteOffset":600,"byteLength":600,"target":34962,"byteStride":12},{"buffer":0,"byteOffset":1200,"byteLength":400,"target":34962,"byteStride":8},{"buffer":0,"byteOffset":1600,"byteLength":120,"target":34963}],"buffers":[{"byteLength":1720,"uri":"data:application/octet-stream;base64,"}],"accessors":[{"bufferView":0,"componentType":5126,"count":50,"max":[0.0031250000465661287,0.3125,-0.05589199438691139],"min":[-0.0031250000465661287,0.1875,-0.06214199587702751],"type":"VEC3"},{"bufferView":1,"componentType":5126,"count":50,"max":[0.955422580242157,1,1],"min":[-0.955422580242157,-1,-0.7946544885635376],"type":"VEC3"},{"bufferView":2,"componentType":5126,"count":50,"max":[0.7265375256538391,0.7265423536300659],"min":[0,0],"type":"VEC2"},{"bufferView":3,"componentType":5123,"count":60,"max":[49],"min":[0],"type":"SCALAR"}],"materials":[{"pbrMetallicRoughness":{"metallicFactor":0,"roughnessFactor":1},"alphaMode":"MASK","alphaCutoff":0.05,"doubleSided":true}],"meshes":[{"primitives":[{"mode":4,"attributes":{"POSITION":0,"NORMAL":1,"TEXCOORD_0":2},"indices":3,"material":0}]}]}